<?xml version="1.0" encoding="UTF-8"?>
<svg width="447px" height="428px" viewBox="0 0 447 428" version="1.1" xmlns="http://www.w3.org/2000/svg" xmlns:xlink="http://www.w3.org/1999/xlink">
    <!-- Generator: Sketch 52.6 (67491) - http://www.bohemiancoding.com/sketch -->
    <title>linkedin-letters</title>
    <desc>Created with Sketch.</desc>
    <defs>
        <filter x="-2.7%" y="-2.9%" width="105.5%" height="105.7%" filterUnits="objectBoundingBox" id="filter-1">
            <feOffset dx="0" dy="2" in="SourceAlpha" result="shadowOffsetOuter1"></feOffset>
            <feGaussianBlur stdDeviation="2" in="shadowOffsetOuter1" result="shadowBlurOuter1"></feGaussianBlur>
            <feColorMatrix values="0 0 0 0 0   0 0 0 0 0   0 0 0 0 0  0 0 0 0.5 0" type="matrix" in="shadowBlurOuter1" result="shadowMatrixOuter1"></feColorMatrix>
            <feMerge>
                <feMergeNode in="shadowMatrixOuter1"></feMergeNode>
                <feMergeNode in="SourceGraphic"></feMergeNode>
            </feMerge>
        </filter>
    </defs>
    <g id="Page-1" stroke="none" stroke-width="1" fill="none" fill-rule="evenodd">
        <g id="linkedin-letters" filter="url(#filter-1)" transform="translate(4.000000, 2.000000)" fill="#FFFFFF">
            <rect id="Rectangle" x="5.424" y="136.895" width="94.216" height="282.932"></rect>
            <path d="M408.842,162.739 C389.051,141.135 362.875,130.331 330.33,130.331 C318.339,130.331 307.439,131.806 297.635,134.758 C287.834,137.708 279.556,141.847 272.797,147.177 C266.042,152.507 260.662,157.455 256.668,162.021 C252.87,166.358 249.156,171.41 245.532,177.125 L245.532,136.893 L151.597,136.893 L151.885,150.599 C152.078,159.738 152.173,187.906 152.173,235.107 C152.173,282.312 151.983,343.884 151.601,419.829 L245.532,419.829 L245.532,261.942 C245.532,252.237 246.573,244.53 248.671,238.815 C252.671,229.103 258.708,220.972 266.802,214.408 C274.895,207.836 284.932,204.553 296.927,204.553 C313.291,204.553 325.334,210.215 333.044,221.54 C340.751,232.864 344.605,248.52 344.605,268.506 L344.605,419.82 L438.536,419.82 L438.536,257.664 C438.529,215.976 428.639,184.336 408.842,162.739 Z" id="Path"></path>
            <path d="M53.103,0.708 C37.307,0.708 24.508,5.327 14.703,14.556 C4.899,23.787 0,35.441 0,49.529 C0,63.42 4.758,75.034 14.275,84.358 C23.789,93.683 36.353,98.348 51.96,98.348 L52.531,98.348 C68.521,98.348 81.418,93.687 91.219,84.358 C101.02,75.034 105.825,63.424 105.636,49.529 C105.446,35.442 100.589,23.787 91.075,14.556 C81.562,5.323 68.9,0.708 53.103,0.708 Z" id="Path"></path>
        </g>
    </g>
</svg>