<?xml version="1.0" encoding="UTF-8"?>
<svg width="440px" height="396px" viewBox="0 0 440 396" version="1.1" xmlns="http://www.w3.org/2000/svg" xmlns:xlink="http://www.w3.org/1999/xlink">
    <!-- Generator: Sketch 52.6 (67491) - http://www.bohemiancoding.com/sketch -->
    <title>Shape</title>
    <desc>Created with Sketch.</desc>
    <defs>
        <path d="M505.051347,498.106711 L505.051347,409.101711 C505.051347,368.872711 479.351347,334.747711 443.508347,321.979711 L443.508347,278.739711 C443.508347,262.989711 430.717347,250.219711 414.971347,250.219711 C399.200347,250.219711 386.416347,262.989711 386.416347,278.739711 C386.416347,278.739711 389.359347,316.532711 351.341347,316.532711 C313.299347,316.532711 309.283347,278.739711 309.283347,278.739711 C309.283347,262.989711 296.528347,250.219711 280.755347,250.219711 C264.994347,250.219711 252.218347,262.989711 252.218347,278.739711 L252.218347,323.542711 C218.633347,337.432711 195.002347,370.492711 195.002347,409.094711 L195.002347,498.843711 C188.219347,502.739711 183.583347,509.944711 183.583347,518.325711 C183.583347,530.755711 193.678347,540.839711 206.091347,540.839711 L495.305347,540.839711 C507.759347,540.839711 517.843347,530.755711 517.843347,518.325711 C517.848347,509.395711 512.599347,501.746711 505.051347,498.106711 Z M350.023347,459.106711 C322.216347,459.106711 299.663347,436.563711 299.663347,408.758711 C299.663347,380.942711 322.222347,358.404711 350.023347,358.404711 C377.821347,358.404711 400.395347,380.941711 400.395347,408.758711 C400.395347,436.568711 377.827347,459.106711 350.023347,459.106711 Z M376.468347,408.439711 C376.468347,423.370711 364.374347,435.452711 349.441347,435.452711 C334.522347,435.452711 322.429347,423.370711 322.429347,408.439711 C322.429347,393.508711 334.522347,381.416711 349.441347,381.416711 C364.374347,381.415711 376.468347,393.508711 376.468347,408.439711 Z M561.753347,268.342711 L561.800347,268.360711 C561.688347,268.881711 561.575347,269.365711 561.481347,269.880711 C561.304347,270.793711 561.121347,271.635711 560.943347,272.460711 C560.861347,272.797711 560.796347,273.154711 560.713347,273.518711 C559.632347,277.948711 558.604347,280.528711 558.604347,280.528711 C558.604347,280.528711 558.533347,280.460711 558.444347,280.392711 C550.790347,299.593711 533.909347,311.631711 516.791347,305.380711 L478.927347,289.613711 C458.499347,282.159711 445.578347,254.397711 450.030347,227.597711 L450.396347,225.422711 C404.080347,212.536711 311.682347,207.524711 242.834347,227.003711 L243.674347,232.101711 C248.131347,258.900711 235.177347,286.651711 214.773347,294.096711 L176.929347,305.952711 C157.010347,313.223711 137.398347,300.396711 132.303347,274.799711 C127.563347,259.741711 124.811347,157.125711 332.075347,153.147711 C550.563347,148.942711 567.297347,235.652711 561.753347,268.342711 Z" id="path-1"></path>
        <filter x="-1.6%" y="-1.3%" width="103.2%" height="103.6%" filterUnits="objectBoundingBox" id="filter-2">
            <feOffset dx="0" dy="2" in="SourceAlpha" result="shadowOffsetOuter1"></feOffset>
            <feGaussianBlur stdDeviation="2" in="shadowOffsetOuter1" result="shadowBlurOuter1"></feGaussianBlur>
            <feColorMatrix values="0 0 0 0 0   0 0 0 0 0   0 0 0 0 0  0 0 0 0.5 0" type="matrix" in="shadowBlurOuter1"></feColorMatrix>
        </filter>
    </defs>
    <g id="Page-1" stroke="none" stroke-width="1" fill="none" fill-rule="evenodd">
        <g id="telephone-of-black-vintage-design" transform="translate(-127.000000, -151.000000)">
            <g id="Shape">
                <use fill="black" fill-opacity="1" filter="url(#filter-2)" xlink:href="#path-1"></use>
                <use fill="#FFFFFF" fill-rule="evenodd" xlink:href="#path-1"></use>
            </g>
        </g>
    </g>
</svg>